<svg xmlns="http://www.w3.org/2000/svg" viewBox="0 0 500 500"><g id="freepik--Character--inject-37"><ellipse id="freepik--shadow--inject-37" cx="176.87" cy="403.41" rx="51.7" ry="29.85" style="fill:#92E3A9;opacity:0.30000000000000004"></ellipse><g id="freepik--character--inject-37"><g id="freepik--Bottom--inject-37"><path d="M231.74,220.61C218.46,194,211.18,185.75,201.15,175c-3.32,11.72-8.18,33.57-8.18,33.57l-2.31,24s6.8,11.91,12.63,21.57c-3.27,1.09-6.14,2.57-10.81,5.54-7.33,4.68-16.18,15.11-25.39,22.88-6.74,5.67-8.13,5.81-10.14,5.82-1.16,0-2.55-.05-2.55-.05s-8-4-10.5.13c-1.84,3-2.43,9.7-8.72,13.4-7.46,4.39-9.93,5.26-10.45,11.9-.45,5.68,2,15.9,7.24,20.28a3,3,0,0,0,3.46-.93c1.94-2.56,1.49-4.39,2.75-7.7s5.41-7.43,8.28-10.14A43.28,43.28,0,0,1,158,308c3.72-1.55,9.22-3.91,15-6,13.31-4.9,50.37-18.15,66.06-31.38C251.62,260,244.46,246.1,231.74,220.61Z" style="fill:#af6152"></path><path d="M216.69,265.72c-6.57-2.14-11.25-8-13.25-11.41h-.51c-1,.34-1.91.71-2.88,1.15C203.31,260.38,209.61,265.41,216.69,265.72Z" style="opacity:0.2"></path><path d="M132.61,335.25c-2.39,1.26-4.46.45-7-4.45a62.59,62.59,0,0,1-5.88-18.64c-.57-5.47,2.47-8.31,7.46-10.9s8.17-4.22,9.81-5.33,2.86-4.75,3.69-6.14a3.82,3.82,0,0,1,3.61-2.17h0c-2.85,2.09-3.24,7.62-8.1,10.66-4.23,2.64-9.55,4.63-12.7,8.08s-.84,11.14,3.22,20.45C129.39,333,131,334.92,132.61,335.25Z" style="fill:#92E3A9"></path><path d="M132.61,335.25c-2.39,1.26-4.46.45-7-4.45a62.59,62.59,0,0,1-5.88-18.64c-.57-5.47,2.47-8.31,7.46-10.9s8.17-4.22,9.81-5.33,2.86-4.75,3.69-6.14a3.82,3.82,0,0,1,3.61-2.17h0c-2.85,2.09-3.24,7.62-8.1,10.66-4.23,2.64-9.55,4.63-12.7,8.08s-.84,11.14,3.22,20.45C129.39,333,131,334.92,132.61,335.25Z" style="opacity:0.2"></path><path d="M145.85,286.94c-3.43,2.74-1.67,7-6.55,11.66s-9.05,7.08-9.85,9.75c4.81,2,9.15,5.37,11.05,12.74s-2.37,12.73-5.25,13.73-4.48,1.3-8.54-8-6.37-17-3.22-20.45,8.47-5.44,12.7-8.08C141.84,294.76,141.35,287.92,145.85,286.94Z" style="fill:#92E3A9"></path><path d="M179.05,396.24c-1-3.94-1.09-11.55-.86-17,.72-17,3.84-38.78,5.94-55.5,4.41-35.15,5.9-41.94,7.1-57.17,1.41-17.81,1.31-37.76,1.31-37.76s7.31-2.54,13.92-15.19c2.27-4.34,4.52-8.87,8.88-22.16-.46-6.17-.79-9.29-.86-14,0,0-9.21,10.11-28.82,9.6-16.76-.43-25.39-8.74-25.39-8.74a22,22,0,0,1-1.11,6.12,92.37,92.37,0,0,1-9.24,17.31c-3.28,5-7.62,12.62-6.49,22.71a226.91,226.91,0,0,0,5.11,30.06c3.53,15.84,8.23,42,8.23,42-3.61,9.64-5.39,15.32-1.85,35.78,2,11.54,5.47,30.84,4.84,36.64a10.45,10.45,0,0,1-2.44,4.81c-1.14,1.38-3.74,3.73-3.29,8.24-.1,3.43,6.53,7.32,7.35,16,.83,8.88.45,13.45,5.87,15.75s18,1.86,19.45,1.83c6.59-.1,2.21-6.54,2.21-6.54C187.11,406.31,180,400.18,179.05,396.24Z" style="fill:#c8856a"></path><path d="M191.41,415.29c.07,2.7-1.58,4.19-7.1,4.29a62.18,62.18,0,0,1-19.32-3c-5.14-1.92-6.34-5.91-6.44-11.52s-.14-9.2-.41-11.17-3-4.67-3.85-6a3.73,3.73,0,0,1-.33-4.15l.13,0c.6,3.48,5.24,6.22,5.8,11.93.48,5-.1,10.61,1.59,15s9.6,5.7,19.75,6.21C187.93,417.15,190.39,416.58,191.41,415.29Z" style="fill:#92E3A9"></path><path d="M191.41,415.29c.07,2.7-1.58,4.19-7.1,4.29a62.18,62.18,0,0,1-19.32-3c-5.14-1.92-6.34-5.91-6.44-11.52s-.14-9.2-.41-11.17-3-4.67-3.85-6a3.73,3.73,0,0,1-.33-4.15l.13,0c.6,3.48,5.24,6.22,5.8,11.93.48,5-.1,10.61,1.59,15s9.6,5.7,19.75,6.21C187.93,417.15,190.39,416.58,191.41,415.29Z" style="opacity:0.2"></path><path d="M154,381.94c.93,4.29,5.56,4.63,7.53,11.05s2.31,11.26,4.35,13.16c4-3.39,8.88-5.8,16.33-4.23s10.34,7.79,10,10.81-.83,4.59-11,4.09-18-1.86-19.74-6.21-1.1-10-1.59-15C159.25,389,152.9,386.41,154,381.94Z" style="fill:#92E3A9"></path><path d="M158.48,186.94c-1.36-1.81-2.42,2.84-4.63,5-3,3-1.34,4.27-1.34,4.27A49.62,49.62,0,0,0,143.34,211c-3.15,8.4-2.68,17.74-2.12,25.45s1.61,18.9,1.61,18.9,7.29,3.56,10.12,4.22a37.82,37.82,0,0,1,.7-13.6,59.26,59.26,0,0,0,2.68,14.66,72.64,72.64,0,0,0,20.3,1.34c12.6-1.18,16.23-4.44,16.23-4.44l.67-11.76,6.58,11.35s32-.28,38.94-23.74c-8.08-15.11-19-34.78-19-34.78s1.31-1.49-1.5-5.18-1.43-7.24-3.5-6c-2.75,4-11.81,8.09-25.83,8.13C180.07,195.58,165.81,193.6,158.48,186.94Z" style="fill:#92E3A9"></path><path d="M161.85,200.38l-.92-.63c-2.78,4-6.11,9.56-7.07,16.75a196.16,196.16,0,0,0-.9,33.33c.16-1.21.38-2.48.69-3.87.1,1.36.25,2.91.45,4.53-.64-11.77-.37-24.57.87-33.84C155.9,209.69,159.14,204.3,161.85,200.38Z" style="fill:#fff"></path><path d="M218.56,193.41c-2.86-3.76-1.43-7.24-3.5-6-2.75,4-11.81,8.09-25.83,8.13-9.16,0-23.42-2-30.75-8.61-1.36-1.81-2.42,2.84-4.63,5-2.45,2.42-1.81,3.72-1.48,4.13l.14.14c5.3,5.3,17.33,9.72,35.14,10.41s28.14-4.4,32.41-8C220.06,198.59,221.37,197.1,218.56,193.41Z" style="fill:#92E3A9"></path><path d="M218.56,193.41c-2.86-3.76-1.43-7.24-3.5-6-2.75,4-11.81,8.09-25.83,8.13-9.16,0-23.42-2-30.75-8.61-1.36-1.81-2.42,2.84-4.63,5-2.45,2.42-1.81,3.72-1.48,4.13l.14.14c5.3,5.3,17.33,9.72,35.14,10.41s28.14-4.4,32.41-8C220.06,198.59,221.37,197.1,218.56,193.41Z" style="opacity:0.15"></path><g style="opacity:0.1"><path d="M152.51,196.23a22.19,22.19,0,0,0,6.91,4.27,55.73,55.73,0,0,0,8.69,2.9,89.57,89.57,0,0,0,18.15,2.6,65.55,65.55,0,0,0,18.22-1.3,47,47,0,0,0,8.36-2.3,27.74,27.74,0,0,0,7.22-3.81c-4.68,4.07-9.4,5.43-15.38,6.94A53,53,0,0,1,195.5,207c-1.55.16-3.1.17-4.65.23s-3.11,0-4.65-.1a92.23,92.23,0,0,1-9.23-1,68.51,68.51,0,0,1-9.08-1.93,56.52,56.52,0,0,1-8.7-3.24A20.92,20.92,0,0,1,152.51,196.23Z"></path></g><path d="M193.53,245.76l.7-13.12s8.72-1.38,16.32-11.55c-1.35,9.89-11.86,15.33-11.86,15.33l-1.2,11.17,2.62,9.52Z" style="opacity:0.1"></path><path d="M207.55,210.87a7.35,7.35,0,0,0-.11-.82c-.1-.27-.24-.53-.36-.79-.22-.45-.43-.89-.67-1.32-.48-.84-1-1.68-1.52-2.48a9.84,9.84,0,0,0-2.33-2.44c2.28-1.17,5.94-3.52,3.35-5.46a3.18,3.18,0,0,0-3.72.25,4.09,4.09,0,0,0-1.69,3.1,6.44,6.44,0,0,0-4.36-2.58c-1.28-.23-3.67-.33-3.94,1.42-.23,1.55,1.49,2.53,2.73,2.89a11.17,11.17,0,0,0,3,.45,8,8,0,0,0-.61,4.35c.15,1.4.47,2.78.6,4.18a15.35,15.35,0,0,1-.87,5.37c-.07.24.2.83.48.51,1.94-2.18,2.15-4.89,1.69-7.64a16.59,16.59,0,0,1-.42-3.78,4.09,4.09,0,0,1,1.34-3,1.52,1.52,0,0,0,.62.54,6.75,6.75,0,0,1,3,2.75c.39.58.74,1.19,1.09,1.8s.56,1,.83,1.44c.17.29.32.61.52.89s.43.45.61.71C207.12,211.68,207.68,211.43,207.55,210.87Zm-4.86-11.62c.5-.4,1.86-1.19,2.52-.67s-1.58,1.74-1.89,1.94a19.65,19.65,0,0,1-2.15,1.2l0-.05A4.58,4.58,0,0,1,202.69,199.25Zm-6.06,2.35c-.61-.07-3.61-.47-2.95-1.55.5-.84,2.47-.49,3.21-.31a13.29,13.29,0,0,1,3.36,1.65l-.33.07A11,11,0,0,1,196.63,201.6Z" style="fill:#263238"></path></g><g id="freepik--Top--inject-37"><g id="freepik--Arm--inject-37"><path d="M221.24,61.46c-9.76-2.31-15.23-.63-27.43-.19-10,.37-12.81.25-16.19-.47a57,57,0,0,1-7-2.2,28.09,28.09,0,0,0-9.85-2.28,28.86,28.86,0,0,0-9.56,1.23c-1.23.32-1.9,1.4-1.76,2a6.51,6.51,0,0,0-3.07,1.26A10.63,10.63,0,0,0,144.71,63c-.84,1.16-2,1.38-3.38,1.6a4.24,4.24,0,0,0-1.87.55c-.85.63-.55,1.4,0,2A6.11,6.11,0,0,0,142.7,69a40.07,40.07,0,0,0,6,.42c3.05.25,8,.61,10.51,2.43.51.37,1.47,1.3.32,1.48a27.08,27.08,0,0,0-4.48.87A5.46,5.46,0,0,0,151.66,77a1.84,1.84,0,0,0-.11,1.34c.22.61.65.6,1.17.56a14.62,14.62,0,0,1,1.62.06l3.37.2c6.54.33,9,.82,15-2.2.86-.44,4.22-2.59,7.4-2.59s27.34,5.12,27.34,5.12a281.33,281.33,0,0,1-9.44,28c-.85,2.09-2.49,3.91-5.19,7.48-1.32,1.74-2.67,3.34-4.07,3.88l24.71,20.8c-.46-6.71,0-9.82,2.6-17.89,4.1-12.75,11-31.57,12.27-44.18C229.75,63,227.38,62.91,221.24,61.46Z" style="fill:#c8856a"></path><path d="M162.72,71.08A11.85,11.85,0,0,1,173,67.55s-3-1.64-5.7-.69A7.34,7.34,0,0,0,162.72,71.08Z" style="fill:#af6152"></path></g><g id="freepik--arm--inject-37"><path d="M111.16,55.25c-1.29.43-1.11-2.12-1.18-2.89a22.52,22.52,0,0,1,.12-4.1c.15-1.52.22-3.86.26-6.54a17.58,17.58,0,0,0-.79-5.66,3.4,3.4,0,0,0-2-2.37c-1.26-.4-1.61,1-1.78,2.15a9.25,9.25,0,0,0-1.63.43,2.86,2.86,0,0,0-1.71,2.17,4.49,4.49,0,0,0-4,3.37c-.17.78-.25.73-1,1-1.31.58-1.43,1.88-1.79,3.12-1.11,3.88-1.82,6.06-1.79,10.11,0,5.41,2.12,10.63,3,15.9a20.64,20.64,0,0,1,.27,5.6c-.49,5.42-.65,8.89-1,14.32-.21,3.13-.83,9.71-1,14.16-.34,10.34-.29,9.6,8.93,17,14.6,11.64,42.21,22.21,49.53,35.83,10,.93,15.57-19.07,6.16-34.87-3.36.44-5.49-1.06-10-2.67-3.38-1.18-7.66-2.85-10.45-4.19-6.59-3.17-23.71-12-23.71-12s-3.19-22.9-3.65-27.75-.54-5-.2-9c.86-2,3.67-4.9,4.58-7.41" style="fill:#c8856a"></path><path d="M115.6,105.14c.1,2.31-.13,9.7-3.22,11.8,4.86-1.58,5.06-8.62,4.83-11Z" style="fill:#af6152"></path><path d="M106.42,56.29c-2.59,3.21-3,8.91-1,13.76C102,67.81,100.45,59.34,106.42,56.29Z" style="fill:#af6152"></path><g id="freepik--Mobile--inject-37"><path d="M84.66,68.88,83,48.32a1.89,1.89,0,0,1,.76-1.7l34.13-23.68a2.09,2.09,0,0,1,1.75-.31l1.34.63a2.18,2.18,0,0,1,1,1.63l1.7,20.48a2.3,2.3,0,0,1-.87,1.86l-34,23.6a2.18,2.18,0,0,1-1.92.23l-1.37-.65A2.06,2.06,0,0,1,84.66,68.88Z" style="fill:#37474f"></path><path d="M83,48.32l1.7,20.56a2.06,2.06,0,0,0,.84,1.53l1.37.65a2.18,2.18,0,0,0,1.92-.23l17.88-12.4L83.14,47.33A1.85,1.85,0,0,0,83,48.32Z" style="fill:#263238;opacity:0.4"></path><path d="M86,49.27a2,2,0,0,1,.77-1.64L120.53,24.2c.72-.51,1.38-.2,1.45.68l1.7,20.49a2.27,2.27,0,0,1-.87,1.86l-34,23.6c-.53.37-1,.14-1.07-.51Z" style="fill:#455a64"></path><path d="M88.58,48.59a2.15,2.15,0,0,1,.83-1.76l29.07-20.17c.51-.35,1-.14,1,.48l1.6,19.27a2.17,2.17,0,0,1-.83,1.77L91.2,68.35c-.51.35-1,.13-1-.49Z" style="fill:#37474f"></path><path d="M120.92,47.34a2.06,2.06,0,0,0,.18-.93l-1.6-19.27c0-.62-.51-.83-1-.48l-3.15,2.19,2.17,16.88Z" style="fill:#37474f"></path><path d="M119.6,47.88a2.18,2.18,0,0,0,.83-1.77l-1.6-19.27a1,1,0,0,0-.07-.32,1,1,0,0,0-.28.14L89.41,46.83a2.15,2.15,0,0,0-.83,1.76l1.6,19.27a.94.94,0,0,0,.08.32,1,1,0,0,0,.27-.14Z" style="fill:#263238"></path><path d="M121,34.61l.28,3.41c0,.21.16.28.32.17a.66.66,0,0,0,.25-.56l-.28-3.42c0-.2-.16-.28-.32-.17A.7.7,0,0,0,121,34.61Z" style="fill:#263238"></path><path d="M121.46,40.47c0,.19.16.26.32.15a.66.66,0,0,0,.25-.54c0-.2-.15-.26-.31-.15A.67.67,0,0,0,121.46,40.47Z" style="fill:#263238"></path><path d="M121.58,41.86c0,.19.15.25.31.14a.66.66,0,0,0,.26-.54c0-.19-.16-.26-.32-.15A.68.68,0,0,0,121.58,41.86Z" style="fill:#263238"></path><path d="M120.66,30.78c0,.19.15.26.31.15a.69.69,0,0,0,.26-.55c0-.19-.16-.26-.32-.15A.68.68,0,0,0,120.66,30.78Z" style="fill:#263238"></path><path d="M120.77,32.16c0,.19.16.26.32.15a.64.64,0,0,0,.25-.54c0-.19-.15-.26-.31-.15A.67.67,0,0,0,120.77,32.16Z" style="fill:#263238"></path><path d="M108.24,31.58a.82.82,0,0,1-.73.07.25.25,0,0,1-.15-.19c0-.05,0-.24,0-.3a.27.27,0,0,1,.14-.23l4.61-3.2a.83.83,0,0,1,.72-.07.24.24,0,0,1,.15.18c0,.05,0,.25,0,.31a.28.28,0,0,1-.14.23Z" style="fill:#455a64"></path><path d="M108.21,31.28l4.61-3.2c.2-.14.19-.32,0-.42a.83.83,0,0,0-.72.07l-4.61,3.2c-.2.14-.19.33,0,.42A.8.8,0,0,0,108.21,31.28Z" style="fill:#37474f"></path><path d="M114.41,27.3a.84.84,0,0,1-.72.07.25.25,0,0,1-.16-.19c0-.05,0-.24,0-.3a.26.26,0,0,1,.14-.23l2.17-1.51a.8.8,0,0,1,.72-.07.24.24,0,0,1,.16.18c0,.05,0,.25,0,.31a.27.27,0,0,1-.14.23Z" style="fill:#455a64"></path><path d="M114.38,27l2.18-1.51c.19-.14.19-.32,0-.42a.8.8,0,0,0-.72.07l-2.17,1.51c-.2.14-.19.32,0,.42A.83.83,0,0,0,114.38,27Z" style="fill:#37474f"></path></g><path d="M116.34,48.2A5.52,5.52,0,0,0,114,50.49c-.69,1.35-1.38,3.95-2.78,4.8l5.14,5.65a24.68,24.68,0,0,0,1.55-6.9,16.82,16.82,0,0,1,1.06-4.41C119.57,47.8,117.48,47.63,116.34,48.2Z" style="fill:#c8856a"></path><path d="M100.9,44.79a3.56,3.56,0,0,1-1.11,3c-.71.49-1.36,0-1.45-1.18a3.57,3.57,0,0,1,1.11-3C100.15,43.12,100.8,43.65,100.9,44.79Z" style="fill:#92E3A9"></path><path d="M108.52,39.5a3.57,3.57,0,0,1-1.11,3c-.7.49-1.35,0-1.45-1.18a3.56,3.56,0,0,1,1.11-3C107.77,37.83,108.42,38.36,108.52,39.5Z" style="fill:#92E3A9"></path><path d="M100.79,56.34a7,7,0,0,1-6-2.66A1.12,1.12,0,0,1,95,52.1a1.11,1.11,0,0,1,1.57.13c2,2.3,4.57,2.51,7.34.59,3-2.08,5.73-6.45,7.3-11.67a1.11,1.11,0,0,1,1.39-.75,1.12,1.12,0,0,1,.75,1.39c-1.74,5.78-4.71,10.47-8.17,12.87A9.08,9.08,0,0,1,100.79,56.34Z" style="fill:#92E3A9"></path></g><path id="freepik--Chest--inject-37" d="M215.61,137.42c-8.84-10.38-21.82-17.78-26.88-18.54a8.55,8.55,0,0,1-1.94.43c-4.54.63-10.42,1.91-17.2,2.16,0,0-4.09.89-8.58,2.17a9,9,0,0,1-4.08.24c6,6.32,7.23,17.5,6.16,23.78-1,5.61-3,11.17-9.45,11.19,3.38,9.72,6.45,14.82,6,21.39,14.54,10.62,51.74,10,55.81-2.6,0,0,.19-8.56-.54-17.29C223,153.51,220.52,143.18,215.61,137.42Z" style="fill:#ebebeb"></path><path d="M178,164.62a29.49,29.49,0,0,1,2.87,1.28,14.84,14.84,0,0,0,2.68.83,14.26,14.26,0,0,0,5.25.1,17.1,17.1,0,0,0,10.62-6.47s.1,0,.08.09A14.53,14.53,0,0,1,189.39,169a16.39,16.39,0,0,1-6.47.07c-1.93-.36-5.13-1.12-6.22-2.93C176.26,165.35,177.22,164.4,178,164.62Z" style="fill:#e0e0e0"></path><g id="freepik--chest--inject-37"><path id="freepik--Hair--inject-37" d="M193.1,108.39a5.8,5.8,0,0,0,2.13-2.52c.93-2,.92-4.4,1.54-6.51.53-1.84,1.81-3.43,2.77-5.07a7.9,7.9,0,0,0,1-6.29A6.86,6.86,0,0,0,198,84.32c-1.3-.94-2.71-1.26-3.56-2.77a6.78,6.78,0,0,1-.41-5c.45-1.81,1-3.79-.09-5.5a9,9,0,0,0-3.85-3.51,25.94,25.94,0,0,0-2.94-1.21,12,12,0,0,1-2.76-.94c-.8-.51-1.61-1.08-2.36-1.67a32,32,0,0,0-4.9-3.78,12.43,12.43,0,0,0-4.89-1.3,10.6,10.6,0,0,0-4.47.58A19.92,19.92,0,0,0,162.52,62a7.64,7.64,0,0,1-3.19,1.84c-2.14.31-4.05.56-4.84.72a18,18,0,0,0-5,1.85c-3.16,1.71-4.62,4.68-5.32,8.09-.24,1.19.11,2.74-.42,3.87s-2.06,1.17-3.06,1.5a13.37,13.37,0,0,0-5.11,3.27,6.73,6.73,0,0,0-1.94,5.43c.09,2.09,1.39,3.17,2,5a7.06,7.06,0,0,1,.3,2.66c-.18,1.09-1.31,2-1.66,3a10.38,10.38,0,0,0,.12,6.87,7.36,7.36,0,0,0,5.06,4.81c2.05.62,4.33.49,6.07,1.9,1,.84,1.58,2.14,2.5,3.12a8.13,8.13,0,0,0,3.74,1.84c1.79.41,3.84-.6,5.43-1.28,2.5-1.07,5.44-2,8.13-1.3,1.49.4,2.84,1.18,4.3,1.66a6.58,6.58,0,0,0,3.73-.09c2.68-.69,5-2.73,7.17-4.4a13,13,0,0,1,7.38-2.74A11,11,0,0,0,193.1,108.39Z" style="fill:#263238"></path><g id="freepik--Head--inject-37"><path d="M147.72,96.88c.91-2.16,3.73-3.9,6.06-2.92,2.5,1.06,2.76,2.21,3.88,3.67s4.41.79,4.15-5.81c-.24-6.16-1.07-11.14.74-14.79C165,72.17,171.37,72.6,175,74c1.34-3.11,3.9-4.69,7.18-3.56s6.31,5.26,9.2,16.55c3,11.52,1.29,19.56-1.07,22-1.79,1.82-3.76,3.19-8.11,4.09l.86,3.74h0a3.15,3.15,0,0,0,3.69,2.55c3.31,2.69,3.82,7.2-2.52,9.33-11.29,3.79-20.62-2.17-23.26-5,1.53-.47,2.93-1.81,2.06-5.47h0l-3.15-13a3.77,3.77,0,0,1-2.57,2.3c-2.31.83-4.39,0-6.09-1.4C147.49,103.06,146.61,99.51,147.72,96.88Z" style="fill:#c8856a"></path><path d="M174.05,90a2.22,2.22,0,0,0-2.62-1.42,2.42,2.42,0,0,0-.72.22c-1.16.47-1.71,2.11-3.05,1.62a1.64,1.64,0,0,0,2.56.4c.23-.17.71-.74,1.12-.87l.22-.06C172.77,89.69,174.36,91,174.05,90Z" style="fill:#263238"></path><path d="M183.24,88.2a2.24,2.24,0,0,1,2-2.21,2.7,2.7,0,0,1,.75,0c1.24.07,2.3,1.44,3.41.54a1.64,1.64,0,0,1-2.29,1.21,4.89,4.89,0,0,0-1.34-.45h-.23C184.36,87.49,183.27,89.22,183.24,88.2Z" style="fill:#263238"></path><path d="M187.89,83l-4.44-1.43A2.24,2.24,0,0,1,186.31,80,2.44,2.44,0,0,1,187.89,83Z" style="fill:#263238"></path><path d="M171.45,83.84l-4.27,2.61a2.39,2.39,0,0,1,.74-3.4A2.62,2.62,0,0,1,171.45,83.84Z" style="fill:#263238"></path><path d="M173.86,100.79l6.72.77a3.4,3.4,0,0,1-4.07,2.93A3.18,3.18,0,0,1,173.86,100.79Z" style="fill:#af6152"></path><path d="M178.37,104.31a3.56,3.56,0,0,0-4.12-2.4l-.32.1a3,3,0,0,0,2.58,2.48A3.83,3.83,0,0,0,178.37,104.31Z" style="fill:#ffa8a7"></path><polygon points="176.97 86.1 180.59 97.1 185.98 93.96 176.97 86.1" style="fill:#af6152"></polygon><path d="M182.27,113a30.55,30.55,0,0,1-11.79-.89c-2.84-.77-5.55-3.63-7-6.37a10.66,10.66,0,0,0,6,8c5.1,2.51,13.42,1.91,13.42,1.91Z" style="fill:#af6152"></path><path d="M153.68,104.93a1.56,1.56,0,1,0,1.22-1.84A1.57,1.57,0,0,0,153.68,104.93Z" style="fill:#fafafa"></path></g></g></g></g></g><g id="freepik--musical-notes--inject-37"><g id="freepik--musical-notes--inject-37"><path id="freepik--musical-note--inject-37" d="M266.88,48.63l-6.68,8.59a2.61,2.61,0,0,0-.65-.72,2.85,2.85,0,1,0,.51,4l6-7.7,9.34,4h0l-5.92,7.64a2.93,2.93,0,0,0-.65-.72,2.85,2.85,0,1,0,.51,4h0L279.22,55Z" style="fill:#92E3A9"></path><path id="freepik--musical-note--inject-37" d="M266.88,48.63l-6.68,8.59a2.61,2.61,0,0,0-.65-.72,2.85,2.85,0,1,0,.51,4l6-7.7,9.34,4h0l-5.92,7.64a2.93,2.93,0,0,0-.65-.72,2.85,2.85,0,1,0,.51,4h0L279.22,55Z" style="fill:#fff;opacity:0.5"></path><path id="freepik--musical-note--inject-37" d="M244.25,118.53a5.46,5.46,0,0,1,2.27-.19,11.7,11.7,0,0,1,2.95.84,21.35,21.35,0,0,0,3.87,1.34,5.07,5.07,0,0,0,3.92-.69,5.22,5.22,0,0,1-2.27-.69c-1.67-1-2.79-3-4.23-4.31-2.13-1.9-4.51-2.16-7.53-1.9-.4,2.47-.86,4.94-1.29,7.41q-.51,2.89-1,5.81c0,.18-.53,2.62-.53,2.62a5.1,5.1,0,0,0-2.08-.88,4.22,4.22,0,1,0,3.44,4.87Z" style="fill:#92E3A9"></path><path id="freepik--musical-note--inject-37" d="M307.69,94.46a5.56,5.56,0,0,1,1.63-1.61,11.63,11.63,0,0,1,2.81-1.26A21.08,21.08,0,0,0,316,90.12a5.11,5.11,0,0,0,2.58-3.06,5.39,5.39,0,0,1-2.2.94c-1.9.34-4.11-.54-6-.6-2.87-.08-4.88,1.25-7,3.4,1.29,2.16,2.53,4.37,3.79,6.55l3,5.13c.1.17,1.29,2.37,1.29,2.37a5.15,5.15,0,0,0-2.17.66A4.25,4.25,0,1,0,315,107Z" style="fill:#92E3A9"></path><path id="freepik--musical-note--inject-37" d="M284.22,151.59a7.13,7.13,0,0,1,2.53-1.56,15.32,15.32,0,0,1,3.92-.78,27.62,27.62,0,0,0,5.29-.73,6.65,6.65,0,0,0,4.15-3.13,6.92,6.92,0,0,1-3.05.55c-2.5-.12-5-1.87-7.46-2.51-3.61-.94-6.53.16-9.89,2.25,1,3.11,1.93,6.26,2.89,9.38.76,2.45,1.51,4.91,2.27,7.36.07.23.94,3.36.94,3.36a6.72,6.72,0,0,0-2.93.2,5.51,5.51,0,1,0,6.89,3.63Z" style="fill:#92E3A9"></path><path id="freepik--musical-note--inject-37" d="M284.22,151.59a7.13,7.13,0,0,1,2.53-1.56,15.32,15.32,0,0,1,3.92-.78,27.62,27.62,0,0,0,5.29-.73,6.65,6.65,0,0,0,4.15-3.13,6.92,6.92,0,0,1-3.05.55c-2.5-.12-5-1.87-7.46-2.51-3.61-.94-6.53.16-9.89,2.25,1,3.11,1.93,6.26,2.89,9.38.76,2.45,1.51,4.91,2.27,7.36.07.23.94,3.36.94,3.36a6.72,6.72,0,0,0-2.93.2,5.51,5.51,0,1,0,6.89,3.63Z" style="fill:#fff;opacity:0.30000000000000004"></path></g><g id="freepik--musical-notes--inject-37"><path id="freepik--musical-note--inject-37" d="M59.15,108.39l9.09,9.53a3.25,3.25,0,0,0-1,.64,3.45,3.45,0,1,0,4.88.1L64,110.12l6.44-10.46h0l8.09,8.45a3.44,3.44,0,1,0,3.9.75h0L68.91,94.75Z" style="fill:#92E3A9"></path><path id="freepik--musical-note--inject-37" d="M33.86,158.84a6.25,6.25,0,0,1,1.42-2.1,13.21,13.21,0,0,1,2.78-2,24.83,24.83,0,0,0,3.86-2.43,5.71,5.71,0,0,0,2.14-3.89,5.93,5.93,0,0,1-2.18,1.49c-2,.78-4.59.31-6.69.67-3.14.53-5,2.41-6.91,5.22,1.87,2.07,3.7,4.19,5.54,6.28L38.16,167l1.92,2.29a5.63,5.63,0,0,0-2.22,1.19,4.7,4.7,0,1,0,6.64.4Z" style="fill:#92E3A9"></path><path id="freepik--musical-note--inject-37" d="M33.86,158.84a6.25,6.25,0,0,1,1.42-2.1,13.21,13.21,0,0,1,2.78-2,24.83,24.83,0,0,0,3.86-2.43,5.71,5.71,0,0,0,2.14-3.89,5.93,5.93,0,0,1-2.18,1.49c-2,.78-4.59.31-6.69.67-3.14.53-5,2.41-6.91,5.22,1.87,2.07,3.7,4.19,5.54,6.28L38.16,167l1.92,2.29a5.63,5.63,0,0,0-2.22,1.19,4.7,4.7,0,1,0,6.64.4Z" style="fill:#fff;opacity:0.30000000000000004"></path><path id="freepik--musical-note--inject-37" d="M107,161.49l3.9,14.12a3.79,3.79,0,0,0-1.29.11,3.83,3.83,0,1,0,4.72,2.67l-3.5-12.65,11.81-6.88h0l3.49,12.54a3.82,3.82,0,1,0,3.43,2.78h0l-5.83-20.93Z" style="fill:#92E3A9"></path><path id="freepik--musical-note--inject-37" d="M107,161.49l3.9,14.12a3.79,3.79,0,0,0-1.29.11,3.83,3.83,0,1,0,4.72,2.67l-3.5-12.65,11.81-6.88h0l3.49,12.54a3.82,3.82,0,1,0,3.43,2.78h0l-5.83-20.93Z" style="fill:#fff;opacity:0.5"></path><path id="freepik--musical-note--inject-37" d="M79.7,223.71l8.37,10a3.28,3.28,0,0,0-1,.57,3.41,3.41,0,1,0,4.81.42l-7.5-9,7-9.92h0l7.45,8.86a3.35,3.35,0,0,0-1,.57,3.41,3.41,0,1,0,4.81.42h0L90.2,210.86Z" style="fill:#92E3A9"></path></g></g></svg>